<svg xmlns="http://www.w3.org/2000/svg" xmlns:xlink="http://www.w3.org/1999/xlink" viewBox="0 0 225.89 46.53"><defs><style>.cls-1{fill:none;}.cls-2{isolation:isolate;}.cls-3{clip-path:url(#clip-path);}.cls-4{fill:#0c8ee3;}</style><clipPath id="clip-path"><rect class="cls-1" width="225.89" height="46.53"/></clipPath></defs><g id="Layer_2" data-name="Layer 2"><g id="Layer_1-2" data-name="Layer 1"><g class="cls-2"><g class="cls-3"><path class="cls-4" d="M8,.52A1.45,1.45,0,0,0,6.53,2V44.57A1.45,1.45,0,0,0,8,46H38.3a1.45,1.45,0,0,0,1.45-1.44V2A1.45,1.45,0,0,0,38.3.52Zm30.32,46H8a2,2,0,0,1-2-2V2A2,2,0,0,1,8,0H38.3a2,2,0,0,1,2,2V44.57A2,2,0,0,1,38.3,46.53Z"/><path class="cls-4" d="M23.14,6.62A10.46,10.46,0,1,0,33.68,17.08,10.51,10.51,0,0,0,23.14,6.62Zm0,21.44a11,11,0,1,1,11.07-11A11,11,0,0,1,23.14,28.06Z"/><path class="cls-4" d="M34,17.34H12.33a.27.27,0,0,1-.27-.26.26.26,0,0,1,.27-.26H34a.26.26,0,0,1,.26.26A.26.26,0,0,1,34,17.34Z"/><path class="cls-4" d="M23.14,28.06a.27.27,0,0,1-.27-.26V6.36a.27.27,0,0,1,.53,0V27.8A.26.26,0,0,1,23.14,28.06Z"/><path class="cls-4" d="M23.14,6.62c-2.8,0-5.07,4.69-5.07,10.46s2.27,10.45,5.07,10.45,5.07-4.69,5.07-10.45S25.93,6.62,23.14,6.62Zm0,21.44c-3.09,0-5.6-4.93-5.6-11s2.51-11,5.6-11,5.59,4.92,5.59,11S26.22,28.06,23.14,28.06Z"/><path class="cls-4" d="M16.19,9.22a10.57,10.57,0,0,0,7,2.59,10.61,10.61,0,0,0,7-2.59,10.59,10.59,0,0,0-13.9,0Zm7,3.11a11.14,11.14,0,0,1-7.53-2.92.27.27,0,0,1-.08-.19.28.28,0,0,1,.08-.2A11.16,11.16,0,0,1,30.66,9a.28.28,0,0,1,.08.2.27.27,0,0,1-.08.19A11.12,11.12,0,0,1,23.14,12.33Z"/><path class="cls-4" d="M16.19,24.94a10.62,10.62,0,0,0,13.9,0,10.62,10.62,0,0,0-13.9,0Zm7,3.12a11.1,11.1,0,0,1-7.53-2.93.27.27,0,0,1,0-.38,11.13,11.13,0,0,1,15.05,0,.27.27,0,0,1,0,.38A11.08,11.08,0,0,1,23.14,28.06Z"/><path class="cls-4" d="M34,33.28H12.33a.26.26,0,0,1-.27-.26.27.27,0,0,1,.27-.26H34a.26.26,0,0,1,.26.26A.26.26,0,0,1,34,33.28Z"/><path class="cls-4" d="M13.25,38.51h-.92a.26.26,0,0,1-.27-.26.27.27,0,0,1,.27-.26h.92a.26.26,0,0,1,.26.26A.25.25,0,0,1,13.25,38.51Z"/><path class="cls-4" d="M16.85,38.51h-1.8a.26.26,0,0,1-.27-.26.27.27,0,0,1,.27-.26h1.8a.26.26,0,0,1,.26.26A.26.26,0,0,1,16.85,38.51Zm3.59,0h-1.8a.26.26,0,0,1-.26-.26.26.26,0,0,1,.26-.26h1.8a.26.26,0,0,1,.26.26A.25.25,0,0,1,20.44,38.51Zm3.6,0h-1.8a.26.26,0,0,1-.27-.26.27.27,0,0,1,.27-.26H24a.26.26,0,0,1,.26.26A.26.26,0,0,1,24,38.51Zm3.59,0h-1.8a.26.26,0,0,1-.26-.26.26.26,0,0,1,.26-.26h1.8a.27.27,0,0,1,.27.26A.26.26,0,0,1,27.63,38.51Zm3.6,0h-1.8a.26.26,0,0,1-.27-.26.27.27,0,0,1,.27-.26h1.8a.26.26,0,0,1,.26.26A.26.26,0,0,1,31.23,38.51Z"/><path class="cls-4" d="M34,38.51H33a.26.26,0,0,1-.26-.26A.26.26,0,0,1,33,38H34a.26.26,0,0,1,.26.26A.26.26,0,0,1,34,38.51Z"/><path class="cls-4" d="M40.27,34.51H50.86A1.54,1.54,0,0,0,52.4,33V13.55A1.54,1.54,0,0,0,50.86,12H40.27ZM50.86,35H40a.26.26,0,0,1-.26-.26v-23A.26.26,0,0,1,40,11.5H50.86a2.06,2.06,0,0,1,2.07,2.05V33A2.06,2.06,0,0,1,50.86,35Z"/><path class="cls-4" d="M47,18.73H40a.26.26,0,0,1,0-.52h7a.26.26,0,0,1,.26.26A.25.25,0,0,1,47,18.73Z"/><path class="cls-4" d="M49.85,16H40a.26.26,0,0,1,0-.52h9.84a.27.27,0,0,1,.27.26A.26.26,0,0,1,49.85,16Z"/><path class="cls-4" d="M49.85,27.53H40A.26.26,0,0,1,40,27h9.84a.27.27,0,0,1,.27.26A.26.26,0,0,1,49.85,27.53Z"/><path class="cls-4" d="M49.85,30H40a.26.26,0,0,1,0-.52h9.84a.27.27,0,0,1,.27.26A.26.26,0,0,1,49.85,30Z"/><path class="cls-4" d="M40.27,38.51H47A1.53,1.53,0,0,0,48.58,37V35H40.27ZM47,39H40a.27.27,0,0,1-.26-.27v-4A.26.26,0,0,1,40,34.5h8.83a.27.27,0,0,1,.27.27V37A2.06,2.06,0,0,1,47,39Z"/><path d="M139.85,3.72V32.79L135,28V3.71h4.88ZM124,26.55V17.89h4.92V28.78a15,15,0,0,1-4.69,3.16,14.78,14.78,0,0,1-11.43,0,15.14,15.14,0,0,1-4.69-3.14,14.63,14.63,0,0,1-3.19-4.62,14.34,14.34,0,0,1,0-11.3,14.85,14.85,0,0,1,3.19-4.67A15.2,15.2,0,0,1,112.76,5a14.26,14.26,0,0,1,5.72-1.15h10.4L124,8.76h-5.48a9.7,9.7,0,0,0-3.81.75,9.83,9.83,0,0,0-3.12,2.09,10,10,0,0,0-2.12,3.09,9.46,9.46,0,0,0,0,7.57,10.06,10.06,0,0,0,2.1,3.09,9.46,9.46,0,0,0,3.11,2.09,10,10,0,0,0,3.84.75A9.6,9.6,0,0,0,124,26.55ZM97.66,3.72V32.79L92.78,28V3.71h4.88Zm-12.11,9a14.15,14.15,0,0,1,0,11.27,15,15,0,0,1-3.16,4.65,14.63,14.63,0,0,1-4.69,3.16A14.28,14.28,0,0,1,72,33H62.2l4.87-4.88H72a9.79,9.79,0,0,0,3.82-.76A9.83,9.83,0,0,0,81,22.13a9.49,9.49,0,0,0,0-7.49,9.88,9.88,0,0,0-2.12-3.11,9.73,9.73,0,0,0-3.14-2.1A9.44,9.44,0,0,0,72,8.67H67.08L62.2,3.79H72A14.18,14.18,0,0,1,77.68,5a15,15,0,0,1,7.87,7.8Z"/><path d="M215.31,13.15a8.41,8.41,0,0,0-4.18,1.09,7.82,7.82,0,0,0-3,3,8.06,8.06,0,0,0-1.1,4.13,7.42,7.42,0,0,0,2.27,5.57,9,9,0,0,0,11.8,0,7.68,7.68,0,0,0,2.22-5.74,8.27,8.27,0,0,0-1-4.13,7.52,7.52,0,0,0-2.9-2.86,8.17,8.17,0,0,0-4.06-1.06Zm10.54,14.3a18.93,18.93,0,0,1-.77,6.3,8.15,8.15,0,0,1-3.62,4.34,12,12,0,0,1-6.2,1.52,14.45,14.45,0,0,1-4.78-.74,9.78,9.78,0,0,1-3.45-2,11.57,11.57,0,0,1-2.44-3.66h2.88a7.58,7.58,0,0,0,3,3,9.93,9.93,0,0,0,4.61,1,9.61,9.61,0,0,0,4.59-1,6.21,6.21,0,0,0,2.66-2.52,11.19,11.19,0,0,0,.79-4.91v-1a9.93,9.93,0,0,1-3.66,2.89,10.93,10.93,0,0,1-9.94-.39,9.91,9.91,0,0,1-3.87-3.78,10.29,10.29,0,0,1-1.37-5.21A10.5,10.5,0,0,1,209.69,12,10.57,10.57,0,0,1,215,10.62a11.9,11.9,0,0,1,4.24.71A15.17,15.17,0,0,1,223,13.55c1.23,1,2.2,2.93,2.9,5.76q0,.57,0,8.14ZM189.76,13.19a7.64,7.64,0,0,0-5.66,2.43,8.08,8.08,0,0,0-2.37,5.86,8.37,8.37,0,0,0,1.08,4.15,7.49,7.49,0,0,0,2.92,3,8.39,8.39,0,0,0,8.09,0,7.44,7.44,0,0,0,2.9-3,8.37,8.37,0,0,0,1.08-4.15,8.05,8.05,0,0,0-2.38-5.86,7.62,7.62,0,0,0-5.66-2.43Zm0-2.57a10.29,10.29,0,0,1,7.9,3.41,10.65,10.65,0,0,1,2.85,7.41,10.54,10.54,0,0,1-3,7.47,10.95,10.95,0,0,1-15.47,0,10.57,10.57,0,0,1-3-7.47,10.61,10.61,0,0,1,2.84-7.39,10.24,10.24,0,0,1,7.9-3.43ZM171.85,3.71h2.67V32.09h-2.67Zm-21.51,15V29.28h6.81a12.3,12.3,0,0,0,4.47-.6,5.2,5.2,0,0,0,2.29-1.85,4.76,4.76,0,0,0,.86-2.74,4.7,4.7,0,0,0-1.21-3.21A6.16,6.16,0,0,0,160.22,19a24.19,24.19,0,0,0-4.95-.34Zm0-11.64v8.86h4.95a12.4,12.4,0,0,0,4.26-.54,4.67,4.67,0,0,0,2.16-1.69,4.35,4.35,0,0,0,.8-2.57,3.61,3.61,0,0,0-1.33-3A6.75,6.75,0,0,0,156.93,7Zm-2.73-2.71h8.86a13.17,13.17,0,0,1,5.1.78,6.26,6.26,0,0,1,2.82,2.41,6.6,6.6,0,0,1,1,3.58,6.35,6.35,0,0,1-.91,3.36,6.73,6.73,0,0,1-2.68,2.45,10.43,10.43,0,0,1,3.37,1.72A7,7,0,0,1,167.67,24a7.45,7.45,0,0,1-2.46,5.65,9.3,9.3,0,0,1-6.59,2.3h-11V4.31Z"/></g></g></g></g></svg>