<svg xmlns="http://www.w3.org/2000/svg" xmlns:xlink="http://www.w3.org/1999/xlink" viewBox="0 0 225.14 49.53"><defs><style>.cls-1{fill:none;}.cls-2{isolation:isolate;}.cls-3{clip-path:url(#clip-path);}.cls-4{fill:#0c8ed3;fill-rule:evenodd;}.cls-5{fill:#111;}</style><clipPath id="clip-path"><rect class="cls-1" width="225.14" height="49.53"/></clipPath></defs><g id="Layer_2" data-name="Layer 2"><g id="Layer_1-2" data-name="Layer 1"><g class="cls-2"><g class="cls-3"><path class="cls-4" d="M41,24.52c0,3.7.91,6.69,2,6.69s2-3,2-6.69-.91-6.69-2-6.69S41,20.83,41,24.52Z"/><path class="cls-4" d="M15.73,2.44C6.44,6.33,0,14.82,0,24.67S6.44,43,15.73,46.9C10.41,42.25,6.87,34,6.87,24.67S10.41,7.09,15.73,2.44Z"/><path class="cls-4" d="M27.22,8.13a51.73,51.73,0,0,0-2.41,16.72,52.2,52.2,0,0,0,2.36,16.61A3,3,0,0,1,24.87,43c-3.21,0-5.8-8.15-5.8-18.21s2.59-18.2,5.79-18.2A3.14,3.14,0,0,1,27.22,8.13ZM38,24.85c0,6.91-1.7,12.52-3.8,12.52s-3.8-5.61-3.8-12.52,1.7-12.51,3.8-12.52S38,17.94,38,24.85ZM22,0c-4.36,0-7.89,11.09-7.89,24.76S17.66,49.53,22,49.53c2.15,0,4.1-2.71,5.52-7.11,1.21,3,2.72,4.73,4.37,4.73,3.92,0,7.1-10,7.09-22.3S35.83,2.55,31.91,2.56c-1.63,0-3.14,1.74-4.34,4.65C26.15,2.76,24.18,0,22,0Z"/><path class="cls-5" d="M223.27,15.14a1.84,1.84,0,0,1-1.33-.55,1.88,1.88,0,0,1,0-2.66,1.84,1.84,0,0,1,1.33-.55,1.77,1.77,0,0,1,1.32.55,1.88,1.88,0,0,1,0,2.66,1.77,1.77,0,0,1-1.32.55Zm-8.1,23.5a1.77,1.77,0,0,1-1.32-.55,1.8,1.8,0,0,1-.55-1.33V15.14h-6.22a1.8,1.8,0,0,1-1.32-.55,1.91,1.91,0,0,1,0-2.66,1.81,1.81,0,0,1,1.32-.56h8.09A1.88,1.88,0,0,1,217,13.26v23.5a1.83,1.83,0,0,1-.54,1.33,1.8,1.8,0,0,1-1.32.55Zm-31.44-23.5a1.77,1.77,0,0,1-1.32-.55,1.88,1.88,0,0,1,0-2.66,1.77,1.77,0,0,1,1.32-.55,1.8,1.8,0,0,1,1.32.55,1.91,1.91,0,0,1,0,2.66,1.8,1.8,0,0,1-1.32.55ZM192,38.64a10.42,10.42,0,0,1-6.95-2.54,9.9,9.9,0,0,1-3.23-7.65V21.24a1.88,1.88,0,0,1,1.87-1.88,1.86,1.86,0,0,1,1.86,1.88v7.21a6.43,6.43,0,0,0,.95,3.64A5.67,5.67,0,0,0,189,34.18a7.35,7.35,0,0,0,3.08.68,7.27,7.27,0,0,0,3.07-.68,5.73,5.73,0,0,0,2.42-2.09,6.51,6.51,0,0,0,.94-3.64V13.26a1.82,1.82,0,0,1,.54-1.33,1.8,1.8,0,0,1,1.32-.55,1.77,1.77,0,0,1,1.32.55,1.79,1.79,0,0,1,.55,1.33V28.45a10.49,10.49,0,0,1-.87,4.41A9.29,9.29,0,0,1,199,36.05,10,10,0,0,1,195.74,38a10.73,10.73,0,0,1-3.7.65Zm-27.67,0a12.93,12.93,0,0,0,6.81-1.84,14,14,0,0,0,4.9-4.94A13.32,13.32,0,0,0,177.9,25a13.66,13.66,0,0,0-6.67-11.77,2,2,0,0,0-.94-.25,1.79,1.79,0,0,0-1.6.91,1.88,1.88,0,0,0-.29,1,1.8,1.8,0,0,0,.93,1.62A9.87,9.87,0,0,1,174.17,25,9.55,9.55,0,0,1,172.85,30a10.09,10.09,0,0,1-3.54,3.57,9.77,9.77,0,0,1-9.84,0A10.09,10.09,0,0,1,155.93,30,9.55,9.55,0,0,1,154.61,25a10.4,10.4,0,0,1,.11-1.58l0-.32a1.92,1.92,0,0,0-.4-1.16,1.71,1.71,0,0,0-1.45-.71,2,2,0,0,0-1.18.4,1.89,1.89,0,0,0-.7,1.18,14.57,14.57,0,0,0-.16,2.19,13.32,13.32,0,0,0,1.82,6.85,14,14,0,0,0,4.89,4.94,12.94,12.94,0,0,0,6.79,1.84Zm-19.51,0a1.77,1.77,0,0,0,1.32-.55,1.8,1.8,0,0,0,.55-1.33V13.26a1.79,1.79,0,0,0-.55-1.33,1.77,1.77,0,0,0-1.32-.55,1.8,1.8,0,0,0-1.32.55,1.82,1.82,0,0,0-.54,1.33v23.5a1.83,1.83,0,0,0,.54,1.33,1.8,1.8,0,0,0,1.32.55Zm-17.92,0a13.43,13.43,0,0,0,6.82-1.86,13.85,13.85,0,0,0,4.84-4.87,1.9,1.9,0,0,0,.25-.95,1.83,1.83,0,0,0-.91-1.63,1.92,1.92,0,0,0-.94-.25,1.84,1.84,0,0,0-1.64.93,9.8,9.8,0,0,1-3.59,3.56,9.55,9.55,0,0,1-4.83,1.29A9.3,9.3,0,0,1,122,33.53,10.2,10.2,0,0,1,118.48,30a9.91,9.91,0,0,1,0-9.92A10.31,10.31,0,0,1,122,16.46a9.31,9.31,0,0,1,4.91-1.34,8.24,8.24,0,0,1,1.56.15l.28,0a1.9,1.9,0,0,0,1.17-.4,1.7,1.7,0,0,0,.72-1.48,2,2,0,0,0-.4-1.17,1.71,1.71,0,0,0-1.17-.69,12,12,0,0,0-2.16-.19,12.85,12.85,0,0,0-6.79,1.85,14.05,14.05,0,0,0-4.9,4.94A13.22,13.22,0,0,0,113.42,25a13.23,13.23,0,0,0,1.83,6.85,14,14,0,0,0,4.9,4.94,12.94,12.94,0,0,0,6.79,1.84Zm-30.82,0a12.93,12.93,0,0,0,6.81-1.84,14,14,0,0,0,4.89-4.94A13.23,13.23,0,0,0,109.65,25,13.72,13.72,0,0,0,103,13.24,2,2,0,0,0,102,13a1.8,1.8,0,0,0-1.61.91,2,2,0,0,0-.28,1,1.81,1.81,0,0,0,.92,1.62A9.85,9.85,0,0,1,105.92,25,9.55,9.55,0,0,1,104.6,30a10.09,10.09,0,0,1-3.54,3.57,9.43,9.43,0,0,1-4.94,1.33,9.32,9.32,0,0,1-4.9-1.33A10,10,0,0,1,87.67,30,9.55,9.55,0,0,1,86.35,25a10.41,10.41,0,0,1,.12-1.58l0-.32A2,2,0,0,0,86.11,22a1.72,1.72,0,0,0-1.45-.71,2,2,0,0,0-1.18.4,2,2,0,0,0-.71,1.18A16,16,0,0,0,82.62,25a13.32,13.32,0,0,0,1.82,6.85,13.86,13.86,0,0,0,4.89,4.94,12.94,12.94,0,0,0,6.79,1.84ZM76.33,17.82A1.77,1.77,0,0,1,75,17.27a1.88,1.88,0,0,1,0-2.66,1.77,1.77,0,0,1,1.32-.55,1.88,1.88,0,0,1,1.33,3.21,1.79,1.79,0,0,1-1.33.55Zm-7,20.82a13.9,13.9,0,0,1-2.79-.28,10.62,10.62,0,0,1-5.75-3.1A1.81,1.81,0,0,1,60.25,34s0-.19,0-.46a1.53,1.53,0,0,1,.58-1,2,2,0,0,1,1.3-.5l.42,0a1.59,1.59,0,0,1,.92.6,7.18,7.18,0,0,0,3.77,1.92,9.85,9.85,0,0,0,2,.21,8.85,8.85,0,0,0,2.64-.4q2.84-.93,2.84-3.54a2.48,2.48,0,0,0-1.19-2.15,16.8,16.8,0,0,0-4.61-1.69c-1.06-.26-2.1-.57-3.13-.91Q60,24.24,60,19.17a7,7,0,0,1,2.94-6,10.64,10.64,0,0,1,6.45-1.84,1.94,1.94,0,0,1,1.32.6,1.83,1.83,0,0,1,.52,1.34,1.77,1.77,0,0,1-.55,1.31,1.86,1.86,0,0,1-1.33.51h-.21a7.9,7.9,0,0,0-3.44.78,3.42,3.42,0,0,0-1.95,2.72l0,.53a2.89,2.89,0,0,0,1.37,2.56,16.6,16.6,0,0,0,4.76,1.74c1,.25,2,.55,3,.88q5.56,1.86,5.57,6.57c0,.28,0,.57,0,.86-.39,3.06-2.18,5.15-5.38,6.29a11.87,11.87,0,0,1-3.78.59Z"/></g></g></g></g></svg>